#!OML:ASF I:\Actors\actors\Patient Classification 2\Patient 1\Session 1\actor1.ASF
:FULLY-SPECIFIED
:DEGREES
155
root -0.729548 18.6567 5.90834 0.829935 -2.83207 -1.92447
lowerback 4.78669 0.749824 -1.58303
upperback -1.30451 0.924918 0.626002
thorax -4.06759 0.506856 1.45839
lowerneck -14.1714 -1.30286 -0.931298
upperneck 21.9459 -2.3364 3.0576
head 9.2934 -0.833676 0.92319
rclavicle -1.68586e-014 7.95139e-016
rhumerus -41.8013 16.0075 -92.565
rradius 38.0709
rwrist -5.99167
rhand -3.93857 -39.7623
rfingers 7.12502
rthumb 21.8129 -68.553
lclavicle -1.68586e-014 7.95139e-016
lhumerus -43.9313 2.99918 86.982
lradius 44.4679
lwrist -5.16173
lhand 2.09082 -21.8181
lfingers 7.12502
lthumb 27.5914 6.17919
rfemur 7.94241 3.05696 15.5921
rtibia 2.70347e-014
rfoot -15.932 -9.58986
rtoes -11.6606
lfemur -3.93739 -3.49223 -12.4838
ltibia 22.4662
lfoot -22.0824 11.3018
ltoes -55.6047
156
root -0.729465 18.6556 5.90896 0.80209 -2.80525 -1.90829
lowerback 4.89735 0.757736 -1.59833
upperback -1.25352 0.933128 0.629747
thorax -4.07791 0.511034 1.46922
lowerneck -14.3946 -1.33297 -0.886689
upperneck 21.9109 -2.38138 3.02955
head 9.32318 -0.852122 0.899399
rclavicle -1.00014e-015 -9.93923e-016
rhumerus -42.8251 16.9797 -93.0669
rradius 40.5747
rwrist -6.81304
rhand -3.43836 -40.7007
rfingers 7.12502
rthumb 22.2932 -69.4347
lclavicle -1.00014e-015 -9.93923e-016
lhumerus -44.5359 2.30636 87.3762
lradius 46.1164
lwrist -4.51377
lhand 2.54057 -20.9405
lfingers 7.12502
lthumb 28.0215 6.98733
rfemur 7.9819 3.03227 15.5759
rtibia -3.18055e-015
rfoot -15.9403 -9.58868
rtoes -11.6873
lfemur -3.92849 -3.52309 -12.5046
ltibia 22.4892
lfoot -22.0973 11.2857
ltoes -55.5549
157
root -0.729177 18.6546 5.91007 0.78054 -2.77338 -1.89281
lowerback 4.97928 0.751006 -1.60999
upperback -1.20354 0.92217 0.626781
thorax -4.07211 0.505389 1.473
lowerneck -14.5584 -1.36563 -0.925887
upperneck 21.8421 -2.4365 3.11847
head 9.33289 -0.870278 0.928772
rclavicle 1.42302e-014 5.56597e-015
rhumerus -44.0329 18.1531 -93.6896
rradius 43.4662
rwrist -7.50302
rhand -7.16119 -38.5832
rfingers 7.12502
rthumb 18.7158 -67.7028
lclavicle 1.42302e-014 5.56597e-015
lhumerus -45.4293 1.23369 87.924
lradius 48.3673
lwrist -3.38707
lhand 3.14128 -19.8288
lfingers 7.12502
lthumb 28.5956 8.00377
rfemur 8.01012 3.00204 15.5608
rtibia -2.70347e-014
rfoot -15.9155 -9.60544
rtoes -12.0232
lfemur -3.92256 -3.53291 -12.5217
ltibia 22.5203
lfoot -22.0903 11.2981
ltoes -55.5853
158
root -0.72894 18.6526 5.91146 0.743973 -2.73711 -1.87105
lowerback 5.06006 0.726176 -1.66055
upperback -1.16861 0.885203 0.642412
thorax -4.08121 0.488253 1.52005
lowerneck -14.5781 -1.35664 -0.999094
upperneck 21.7006 -2.43208 3.24779
head 9.28987 -0.86124 0.985412
rclavicle -1.10419e-015 4.96962e-015
rhumerus -45.4393 19.5394 -94.4184
rradius 46.6337
rwrist -8.29077
rhand -6.87946 -38.4694
rfingers 7.12502
rthumb 18.9867 -67.5627
lclavicle -1.10419e-015 4.96962e-015
lhumerus -46.5522 -0.0724192 88.6204
lradius 50.9919
lwrist -1.72432
lhand 3.30898 -19.1256
lfingers 7.12502
lthumb 28.7558 8.67991
rfemur 8.06056 2.96876 15.5376
rtibia 4.77083e-015
rfoot -15.8747 -9.59908
rtoes -12.1471
lfemur -3.90852 -3.46582 -12.5357
ltibia 22.5632
lfoot -22.0623 11.2435
ltoes -55.6737
159
root -0.729205 18.6499 5.9121 0.68997 -2.71158 -1.87202
lowerback 5.19266 0.709809 -1.70681
upperback -1.11251 0.859434 0.669614
thorax -4.09814 0.476601 1.57534
lowerneck -14.662 -1.33349 -0.957928
upperneck 21.5127 -2.4034 3.24797
head 9.23908 -0.845524 0.980889
rclavicle 7.96692e-015 9.74045e-015
rhumerus -47.1378 21.3741 -95.6055
rradius 49.9451
rwrist -10.9729
rhand -5.63233 -38.8569
rfingers 7.12502
rthumb 20.1858 -67.8281
lclavicle 7.96692e-015 9.74045e-015
lhumerus -47.7901 -1.56262 89.4167
lradius 53.8979
lwrist 0.364066
lhand 2.86872 -19.2275
lfingers 7.12502
lthumb 28.3351 8.64867
rfemur 8.1332 2.94756 15.5416
rtibia 3.18055e-015
rfoot -15.8589 -9.56487
rtoes -11.9458
lfemur -3.88658 -3.33218 -12.5156
ltibia 22.6131
lfoot -22.0386 11.1094
ltoes -55.749
160
root -0.72927 18.6471 5.9123 0.63458 -2.69379 -1.86833
lowerback 5.3392 0.694351 -1.7398
upperback -1.02729 0.835047 0.684506
thorax -4.09226 0.464691 1.61043
lowerneck -14.9305 -1.32154 -0.848752
upperneck 21.4411 -2.38672 3.14417
head 9.2612 -0.838238 0.927519
rclavicle -5.17772e-015 -6.55989e-015
rhumerus -48.6188 22.7205 -96.2505
rradius 53.4863
rwrist -11.4949
rhand -5.60874 -38.7004
rfingers 7.12502
rthumb 20.2084 -67.6692
lclavicle -5.17772e-015 -6.55989e-015
lhumerus -49.2381 -3.25655 90.2615
lradius 57.1733
lwrist 2.70874
lhand 2.54334 -19.4877
lfingers 7.12502
lthumb 28.0241 8.43968
rfemur 8.20362 2.93409 15.541
rtibia -3.18055e-015
rfoot -15.8726 -9.53307
rtoes -11.8081
lfemur -3.86604 -3.21827 -12.5039
ltibia 22.6659
lfoot -22.0425 10.9632
ltoes -55.7744
161
root -0.728038 18.644 5.91304 0.570731 -2.66319 -1.82523
lowerback 5.47884 0.668534 -1.7867
upperback -0.91307 0.795611 0.689492
thorax -4.05174 0.444914 1.64473
lowerneck -15.2873 -1.30755 -0.810674
upperneck 21.4289 -2.36438 3.09334
head 9.32177 -0.826827 0.904857
rclavicle -3.87009e-015 1.09332e-014
rhumerus -49.8231 23.7316 -96.4369
rradius 56.993
rwrist -10.442
rhand -3.63463 -38.8384
rfingers 7.12502
rthumb 22.1048 -67.5948
lclavicle -3.87009e-015 1.09332e-014
lhumerus -50.9087 -5.11616 91.1556
lradius 60.7897
lwrist 5.0754
lhand 2.2379 -19.6611
lfingers 7.12502
lthumb 27.7321 8.31369
rfemur 8.28155 2.90871 15.4947
rtibia 4.77083e-015
rfoot -15.8635 -9.58854
rtoes -12.1997
lfemur -3.83609 -3.16608 -12.548
ltibia 22.7228
lfoot -22.0439 10.8505
ltoes -55.7714
162
root -0.726734 18.6411 5.91432 0.47007 -2.63673 -1.81498
lowerback 5.65233 0.647077 -1.79863
upperback -0.78635 0.764024 0.699659
thorax -4.01717 0.428181 1.66386
lowerneck -15.546 -1.29157 -0.808907
upperneck 21.2914 -2.34657 3.12919
head 9.32219 -0.813189 0.91752
rclavicle 1.15699e-014 5.76476e-015
rhumerus -50.9518 24.6769 -96.6326
rradius 60.2911
rwrist -9.94457
rhand -2.46866 -38.7509
rfingers 7.12502
rthumb 23.2238 -67.3706
lclavicle 1.15699e-014 5.76476e-015
lhumerus -52.6565 -6.92712 92.0189
lradius 64.5157
lwrist 7.20809
lhand 1.78038 -19.9948
lfingers 7.12502
lthumb 27.2945 8.04963
rfemur 8.40217 2.88998 15.4913
rtibia -2.06736e-014
rfoot -15.8159 -9.70469
rtoes -12.7814
lfemur -3.76666 -3.09146 -12.5573
ltibia 22.7888
lfoot -22.0018 10.7615
ltoes -55.847
163
root -0.726445 18.6376 5.91499 0.359208 -2.65195 -1.84087
lowerback 5.87055 0.60102 -1.82736
upperback -0.713476 0.697962 0.722786
thorax -4.06254 0.396074 1.70862
lowerneck -15.6113 -1.23567 -0.67713
upperneck 21.1224 -2.28089 3.06048
head 9.27174 -0.780788 0.879145
rclavicle 3.54085e-016 -1.98785e-015
rhumerus -52.2033 25.6582 -97.0048
rradius 63.4183
rwrist -10.1207
rhand -2.8649 -38.507
rfingers 7.12502
rthumb 22.8436 -67.1742
lclavicle 3.54085e-016 -1.98785e-015
lhumerus -54.5204 -8.41346 92.7514
lradius 68.2549
lwrist 8.82691
lhand 1.38861 -20.2946
lfingers 7.12502
lthumb 26.9197 7.80821
rfemur 8.52423 2.91269 15.5358
rtibia -9.54166e-015
rfoot -15.7579 -9.80653
rtoes -13.178
lfemur -3.68632 -2.92653 -12.5173
ltibia 22.8619
lfoot -21.9533 10.6251
ltoes -55.9222
164
root -0.726262 18.6332 5.91482 0.27015 -2.69391 -1.85965
lowerback 5.95089 0.508491 -1.94816
upperback -0.568051 0.567141 0.779617
thorax -3.95315 0.331985 1.84759
lowerneck -15.7211 -1.13771 -0.433568
upperneck 20.9749 -2.15355 2.85064
head 9.233 -0.725841 0.781337
rclavicle -1.71887e-014 -3.97569e-016
rhumerus -53.317 26.6967 -97.2918
rradius 66.4639
rwrist -10.3753
rhand -3.36872 -38.5492
rfingers 7.12502
rthumb 22.3601 -67.2752
lclavicle -1.71887e-014 -3.97569e-016
lhumerus -56.2817 -9.48809 93.3388
lradius 72.0041
lwrist 9.93647
lhand 1.14313 -20.548
lfingers 7.12502
lthumb 26.6848 7.59083
rfemur 8.60628 2.96094 15.5648
rtibia 3.49861e-014
rfoot -15.7111 -9.84622
rtoes -13.3492
lfemur -3.62934 -2.81214 -12.491
ltibia 22.9481
lfoot -21.9435 10.5362
ltoes -55.9133
165
root -0.725686 18.6283 5.91469 0.143483 -2.72264 -1.87762
lowerback 5.75484 0.412263 -2.13187
upperback -0.187819 0.435196 0.88995
thorax -3.44514 0.261591 2.07858
lowerneck -16.0648 -1.05206 -0.278477
upperneck 20.7729 -2.02012 2.63853
head 9.21985 -0.673909 0.697541
rclavicle 1.05915e-014 -9.54166e-015
rhumerus -54.0137 27.6939 -97.2109
rradius 69.4791
rwrist -10.7761
rhand -2.77577 -38.554
rfingers 7.12502
rthumb 22.9291 -67.2105
lclavicle 1.05915e-014 -9.54166e-015
lhumerus -57.5796 -10.2646 93.8296
lradius 75.5869
lwrist 10.945
lhand 1.04421 -20.9622
lfingers 7.12502
lthumb 26.5902 7.19103
rfemur 8.72899 2.99984 15.586
rtibia 1.27222e-014
rfoot -15.7009 -9.83116
rtoes -13.2491
lfemur -3.53685 -2.80556 -12.4801
ltibia 23.0563
lfoot -21.9683 10.5243
ltoes -55.8873
166
root -0.725157 18.6225 5.91415 -0.0179988 -2.75833 -1.88863
lowerback 6.49743 0.462169 -1.89319
upperback -0.455108 0.498379 0.739422
thorax -4.13981 0.29708 1.77929
lowerneck -16.0867 -1.13884 -0.269863
upperneck 21.1256 -2.18902 2.78217
head 9.35146 -0.731935 0.725036
rclavicle 1.32875e-014 1.39149e-015
rhumerus -55.6151 27.4628 -97.3691
rradius 72.6578
rwrist -11.4184
rhand -1.70589 -38.9336
rfingers 7.12502
rthumb 23.9555 -67.4591
lclavicle 1.32875e-014 1.39149e-015
lhumerus -59.8372 -11.3914 94.3513
lradius 79.1614
lwrist 12.1254
lhand 0.999366 -21.2661
lfingers 7.12502
lthumb 26.5472 6.89358
rfemur 8.89306 3.04783 15.6057
rtibia -1.74931e-014
rfoot -15.6817 -9.84929
rtoes -13.33
lfemur -3.41397 -2.77162 -12.4765
ltibia 23.1773
lfoot -21.9922 10.5032
ltoes -55.9512
167
root -0.72442 18.6159 5.91251 -0.162741 -2.80699 -1.87698
lowerback 6.90503 0.496665 -1.8488
upperback -0.508013 0.537759 0.676682
thorax -4.42534 0.318197 1.68319
lowerneck -16.2299 -1.20969 -0.30003
upperneck 21.3914 -2.32357 2.92201
head 9.47589 -0.776824 0.761357
rclavicle -2.01269e-015 3.77691e-015
rhumerus -56.6815 27.0711 -97.0456
rradius 75.7071
rwrist -12.2315
rhand -0.774116 -39.4571
rfingers 7.12502
rthumb 24.8487 -67.8623
lclavicle -2.01269e-015 3.77691e-015
lhumerus -61.5868 -12.1901 94.8129
lradius 82.5827
lwrist 13.258
lhand 1.08618 -21.2566
lfingers 7.12502
lthumb 26.6303 6.89045
rfemur 9.03671 3.10702 15.6051
rtibia 7.95139e-015
rfoot -15.6405 -9.8962
rtoes -13.5419
lfemur -3.32199 -2.69697 -12.495
ltibia 23.3074
lfoot -21.9961 10.4924
ltoes -56.1225
168
root -0.722336 18.6093 5.91059 -0.319064 -2.8582 -1.86595
lowerback 7.17005 0.542855 -1.83798
upperback -0.43852 0.594571 0.649759
thorax -4.50452 0.345899 1.64175
lowerneck -16.4274 -1.28284 -0.272927
upperneck 21.5679 -2.4432 2.93309
head 9.57691 -0.824826 0.744853
rclavicle 5.65915e-015 0
rhumerus -57.6367 27.1312 -96.9112
rradius 78.1036
rwrist -12.2667
rhand -0.877299 -38.9006
rfingers 7.12502
rthumb 24.7498 -67.3194
lclavicle 5.65915e-015 0
lhumerus -63.002 -12.7119 95.2057
lradius 85.7766
lwrist 14.0646
lhand 1.17943 -21.376
lfingers 7.12502
lthumb 26.7196 6.75748
rfemur 9.19791 3.1703 15.6008
rtibia -7.95139e-015
rfoot -15.6364 -9.92742
rtoes -13.5824
lfemur -3.23096 -2.59525 -12.5127
ltibia 23.4548
lfoot -21.9892 10.4466
ltoes -56.2159
169
root -0.719942 18.6032 5.90914 -0.491362 -2.92034 -1.88613
lowerback 7.46121 0.610572 -1.7669
upperback -0.372238 0.686089 0.647633
thorax -4.60264 0.389808 1.58761
lowerneck -16.6114 -1.36729 -0.359457
upperneck 21.7461 -2.55743 2.98366
head 9.67808 -0.875056 0.761592
rclavicle -5.32991e-015 -1.98785e-015
rhumerus -58.6876 27.4864 -97.0468
rradius 80.195
rwrist -11.7838
rhand -1.89334 -38.4227
rfingers 7.12502
rthumb 23.7757 -66.9717
lclavicle -5.32991e-015 -1.98785e-015
lhumerus -64.3726 -13.0306 95.5763
lradius 88.836
lwrist 14.6626
lhand 1.1189 -21.548
lfingers 7.12502
lthumb 26.6616 6.59432
rfemur 9.37452 3.24505 15.6334
rtibia -1.74931e-014
rfoot -15.6237 -9.97666
rtoes -13.8187
lfemur -3.1214 -2.4463 -12.4887
ltibia 23.6066
lfoot -21.97 10.3666
ltoes -56.2604
